<svg width="152" height="30" viewBox="0 0 152 30" fill="none" xmlns="http://www.w3.org/2000/svg">
<path d="M40.0547 6.21301H43.4805L49.0504 14.6158L54.6203 6.21301H58.0461V23.9841H54.8299V11.2406L49.0504 19.6187H48.9462L43.2188 11.2912V23.9854H40.0547V6.21301Z" fill="#256A32"/>
<path d="M61.1328 5.60449H64.5319V8.52339H61.1328V5.60449ZM61.2636 10.5803H64.4278V23.9848H61.2636V10.5803Z" fill="#256A32"/>
<path d="M66.4922 17.3589V17.3083C66.4922 13.5003 69.5255 10.3015 73.6829 10.3015C76.2716 10.3015 77.8937 11.2412 79.2008 12.6112L77.2129 14.6681C76.245 13.6779 75.225 12.9923 73.6562 12.9923C71.3546 12.9923 69.655 14.9222 69.655 17.2578V17.3083C69.655 19.6945 71.3546 21.5985 73.7871 21.5985C75.277 21.5985 76.3758 20.9388 77.3691 19.9485L79.2782 21.7761C77.9178 23.2485 76.3237 24.2893 73.6296 24.2893C69.5255 24.2893 66.4922 21.1669 66.4922 17.3589Z" fill="#256A32"/>
<path d="M80.875 10.5803H84.0391V13.6016C84.9016 11.5964 86.497 10.2252 88.9295 10.3263V13.5757H88.7466C85.9749 13.5757 84.0391 15.328 84.0391 18.882V23.9848H80.875V10.5803Z" fill="#256A32"/>
<path d="M89.1367 17.3589V17.3083C89.1367 13.4744 92.2754 10.3015 96.5116 10.3015C100.748 10.3015 103.86 13.4239 103.86 17.2578V17.3083C103.86 21.1164 100.721 24.2905 96.4596 24.2905C92.2488 24.2893 89.1367 21.1669 89.1367 17.3589ZM100.694 17.3589V17.3083C100.694 14.9468 98.9428 12.9923 96.4583 12.9923C93.9217 12.9923 92.3008 14.9222 92.3008 17.2578V17.3083C92.3008 19.644 94.0525 21.5985 96.5116 21.5985C99.0737 21.5985 100.694 19.6698 100.694 17.3589Z" fill="#256A32"/>
<path d="M103.676 10.5804H107.075L110.788 20.4309L114.527 10.5804H117.849L112.2 24.086H109.35L103.676 10.5804Z" fill="#256A32"/>
<path d="M117.691 17.3343V17.2838C117.691 13.4499 120.49 10.3029 124.439 10.3029C128.833 10.3029 131.054 13.6534 131.054 17.5131C131.054 17.7918 131.027 18.0718 131.002 18.3764H120.856C121.196 20.5603 122.791 21.7787 124.83 21.7787C126.373 21.7787 127.471 21.22 128.57 20.1793L130.427 21.7787C129.12 23.3016 127.315 24.2918 124.778 24.2918C120.777 24.2894 117.691 21.4716 117.691 17.3343ZM127.917 16.3441C127.707 14.3637 126.504 12.8148 124.412 12.8148C122.478 12.8148 121.117 14.2613 120.83 16.3441H127.917Z" fill="#256A32"/>
<path d="M131.812 22.2337L133.225 20.1521C134.742 21.2434 136.337 21.8021 137.75 21.8021C139.11 21.8021 139.894 21.2434 139.894 20.3556V20.305C139.894 19.2642 138.429 18.9091 136.808 18.4269C134.768 17.8683 132.493 17.0556 132.493 14.4919V14.4413C132.493 11.9022 134.664 10.3534 137.409 10.3534C139.135 10.3534 141.018 10.9367 142.482 11.8763L141.227 14.0603C139.894 13.2735 138.481 12.7914 137.332 12.7914C136.102 12.7914 135.397 13.35 135.397 14.1121V14.1626C135.397 15.1529 136.887 15.5586 138.509 16.0666C140.522 16.6758 142.797 17.5649 142.797 19.9758V20.0263C142.797 22.8441 140.548 24.24 137.672 24.24C135.708 24.2388 133.537 23.5531 131.812 22.2337Z" fill="#256A32"/>
<path d="M145.123 20.2791V13.2205H143.371V10.5803H145.123V6.89929H148.287V10.5803H152V13.2205H148.287V19.7957C148.287 20.9894 148.914 21.4716 149.986 21.4716C150.693 21.4716 151.32 21.3187 151.948 21.0141V23.5273C151.163 23.9589 150.3 24.2129 149.097 24.2129C146.77 24.2141 145.123 23.2239 145.123 20.2791Z" fill="#256A32"/>
<path d="M10.9989 22.9672L11.8969 23.8391V24.2251C11.8969 27.4017 9.21928 30 5.94846 30C2.67763 30 0 27.4005 0 24.2251V12.2905L10.9989 22.9672Z" fill="#E8AC1B"/>
<path d="M21.4969 16.2763C21.342 17.2727 20.9177 18.2382 20.2267 19.0558C20.1035 19.2013 19.9739 19.3407 19.8329 19.4763C18.9057 20.3765 17.7434 20.9167 16.5342 21.093C16.524 21.0943 16.5126 21.0967 16.5011 21.0992C16.35 21.1214 16.1975 21.1362 16.0439 21.1436C15.9918 21.1473 15.9397 21.151 15.8902 21.1534C15.8749 21.1559 15.8571 21.1571 15.8419 21.1559C15.7784 21.1596 15.7149 21.1621 15.6514 21.1621H15.584C15.5053 21.1645 15.4253 21.1621 15.344 21.1559C15.3363 21.1584 15.3287 21.1584 15.3211 21.1534C15.2334 21.1497 15.142 21.1423 15.0544 21.1349C15.0239 21.1312 14.9946 21.1288 14.9642 21.1239C14.8778 21.1165 14.794 21.1054 14.7089 21.0906C13.4996 20.9117 12.3412 20.3729 11.4177 19.4776L10.982 19.0546L8.40727 16.555L7.74295 15.91L6.79663 14.9938L1.78179 10.1253C0.857064 9.22754 0.300708 8.10043 0.116526 6.92646C-0.161653 5.16797 0.393433 3.30465 1.78179 1.95804C2.48549 1.27487 3.32511 0.798872 4.21935 0.534976C4.79349 0.359867 5.39176 0.27478 5.98877 0.27478C6.54767 0.27478 7.10529 0.348772 7.64514 0.500451C8.58129 0.761881 9.46283 1.24774 10.1957 1.95928L15.2106 6.82781L15.6056 7.21008L16.1277 7.71814L19.0403 10.5445L19.8304 11.3116C20.5633 12.0231 21.0638 12.8802 21.3331 13.789C21.5744 14.598 21.629 15.4501 21.4969 16.2763Z" fill="#256A32"/>
<path d="M31.1641 6.04091C31.1641 6.35166 31.1387 6.66118 31.0853 6.96824C30.8948 8.12495 30.3422 9.23726 29.4289 10.1239L29.1508 10.3927L28.9996 10.5419L24.5411 14.8679L19.793 19.4774C18.8797 20.3641 17.7353 20.9005 16.5438 21.0855C16.5298 21.0892 16.5146 21.0917 16.5019 21.0917C16.2999 21.1249 16.0954 21.1459 15.8922 21.1545C15.8769 21.157 15.8591 21.1582 15.8439 21.157C15.7804 21.1607 15.7169 21.1632 15.6534 21.1632H15.586C15.506 21.1632 15.4273 21.1607 15.346 21.157C15.3383 21.1595 15.3307 21.1595 15.3231 21.1545C15.2037 21.1484 15.0856 21.141 14.9662 21.1286C14.8836 21.1212 14.7998 21.1114 14.7172 21.099C13.4953 20.9276 12.3165 20.3875 11.3803 19.4787C11.2406 19.343 11.1072 19.2012 10.9853 19.0557C10.2854 18.227 9.85734 17.2466 9.70872 16.2355C9.58424 15.4216 9.6414 14.5842 9.87512 13.7889C10.1444 12.88 10.6461 12.023 11.3791 11.3114L12.1691 10.5444L15.0805 7.718L15.6064 7.20994L16.1284 6.70557L20.7381 2.23043L21.015 1.96037C21.7466 1.24883 22.6269 0.762968 23.563 0.504004L23.5656 0.501535C24.6821 0.188312 25.8774 0.199413 26.9914 0.534833C27.8856 0.801196 28.724 1.27596 29.4289 1.96037C30.5848 3.07885 31.1641 4.55988 31.1641 6.04091Z" fill="#256A32"/>
<path d="M31.2797 12.2894V24.224C31.2797 27.4006 28.6021 29.9989 25.3313 29.9989C22.0604 29.9989 19.3828 27.3994 19.3828 24.224V23.8404L20.2796 22.9698L31.2797 12.2894Z" fill="#E8AC1B"/>
</svg>
