<?xml version="1.0" encoding="UTF-8"?> <svg xmlns="http://www.w3.org/2000/svg" xmlns:xlink="http://www.w3.org/1999/xlink" width="240.751" height="47.293" viewBox="0 0 240.751 47.293"><defs><style>.a{fill:none;}.b{clip-path:url(#a);}.c{clip-path:url(#b);}.d{fill:#4bb06c;}.e{clip-path:url(#c);}.f{fill:#093a51;fill-rule:evenodd;}</style><clipPath id="a"><path class="a" d="M417.949,560.84a15.76,15.76,0,0,0-31.052,0h8.071a7.871,7.871,0,0,1,14.931,0Z" transform="translate(-386.897 -547.782)"></path></clipPath><clipPath id="b"><rect class="a" width="371.469" height="246.679"></rect></clipPath><clipPath id="c"><path class="a" d="M412.452,541.96l-2.961,1.391a7.926,7.926,0,1,1-1.869-2.525h0A4.157,4.157,0,0,0,412.452,541.96Zm.736-7.118a15.814,15.814,0,1,0,3.719,5.031l-4.255,1.988a4.138,4.138,0,0,0,.537-7.019Z" transform="translate(-386.75 -530.75)"></path></clipPath></defs><g class="b" transform="translate(0.297 34.234)"><g transform="translate(-43.818 -136.405)"><g class="c"><g transform="translate(42.366 134.969)"><rect class="d" width="33.956" height="15.964"></rect></g></g></g></g><g class="e"><g transform="translate(-43.521 -102.169)"><g class="c"><g transform="translate(36.388 95.039)"><rect class="d" width="34.532" height="34.532" transform="translate(0 14.593) rotate(-24.999)"></rect></g></g></g></g><g transform="translate(-269.44 -100)"><path class="f" d="M501.3,535.437l4.791,11.63h.974l4.791-11.63h5.805l-5.845,13.817v.736l5.845,13.9h-5.805l-4.791-11.71h-.974l-4.791,11.71h-5.805l5.845-13.9v-.736l-5.845-13.817Z" transform="translate(-7.467 -426.016)"></path><path class="f" d="M488.133,535.437h5.348v28.449h-5.348V535.437Z" transform="translate(-14.898 -426.016)"></path><path class="f" d="M474.336,535.417h18.25v5.129H479.7v6.521h12.624v5.149H479.7v11.73h-5.368Z" transform="translate(-28.834 -426.037)"></path><path class="f" d="M455.277,563.856V535.447h8.847l5.527,22.306h.179l5.408-22.306h8.887v28.409h-5.209v-22.5h-.179l-5.805,22.5H466.47l-5.805-22.5h-.159v22.5Z" transform="translate(-48.086 -426.008)"></path><path class="f" d="M455.7,535.417H445.6l-6.8,28.53h5.626l1.393-6.125H455.5l1.391,6.125h5.588Zm-8.768,17.3,3.341-14.614h.736l3.3,14.594Z" transform="translate(-64.73 -426.037)"></path><path class="f" d="M424.865,535.427h17.992v5.129H430.233v6.521H442.36v5.109H430.233v6.6h13.1v5.129H424.865Z" transform="translate(-78.807 -426.027)"></path><path class="f" d="M425.021,544.375a3.862,3.862,0,0,0-1.293-2.864,4.974,4.974,0,0,0-3.578-1.212,5.353,5.353,0,0,0-3.082.8,2.5,2.5,0,0,0-1.134,2.167,2.83,2.83,0,0,0,.279,1.272,2.6,2.6,0,0,0,.955,1.013,7.567,7.567,0,0,0,1.789.8,28.324,28.324,0,0,0,2.842.675,14.406,14.406,0,0,1,6.581,2.625,6.682,6.682,0,0,1,2.285,5.445v.478a8.294,8.294,0,0,1-.7,3.459A7.643,7.643,0,0,1,428,561.67a8.99,8.99,0,0,1-3.122,1.691,15.12,15.12,0,0,1-8.907-.179,9.684,9.684,0,0,1-3.419-2.109,8.878,8.878,0,0,1-2.066-3.18,10.861,10.861,0,0,1-.7-3.976v-1.174h5.17v.915a5.385,5.385,0,0,0,1.431,3.938,5.965,5.965,0,0,0,4.432,1.471,4.987,4.987,0,0,0,3.48-1.035,3.165,3.165,0,0,0,1.134-2.424,3.442,3.442,0,0,0-.239-1.272,2.63,2.63,0,0,0-.814-1.093,5.5,5.5,0,0,0-1.61-.874,14.432,14.432,0,0,0-2.585-.677,27.087,27.087,0,0,1-3.8-.915,10.671,10.671,0,0,1-3-1.51,6.458,6.458,0,0,1-1.968-2.346,7.708,7.708,0,0,1-.7-3.459v-.239a7.1,7.1,0,0,1,.7-3.122,7.574,7.574,0,0,1,1.91-2.485,9.327,9.327,0,0,1,2.961-1.61,12.86,12.86,0,0,1,3.9-.6,12.552,12.552,0,0,1,4.294.7,9.137,9.137,0,0,1,3.162,1.869,7.614,7.614,0,0,1,1.908,2.7,7.714,7.714,0,0,1,.637,3.2v1.413h-5.17v-.915Z" transform="translate(-94.035 -426.047)"></path></g></svg> 